<?xml version="1.0" encoding="UTF-8"?>
<svg id="_レイヤー_1" data-name="レイヤー 1" xmlns="http://www.w3.org/2000/svg" viewBox="0 0 479.26 295.07">
  <defs>
    <style>
      .cls-1 {
        fill: #fff;
        stroke-width: 0px;
      }
    </style>
  </defs>
  <path class="cls-1" d="m190.04,177.56c2.15,5.9,7.81,9.87,14.1,9.87,1.75,0,3.48-.31,5.13-.91l79.4-28.9c1.1-.4,2.11-.93,3.05-1.54l11.8-2.08h14.02c8.27,0,15-6.73,15-15V15c0-8.27-6.73-15-15-15h-84.5c-7.47,0-13.67,5.5-14.8,12.66l-24.06,4.24c-7.59,1.34-12.84,8.2-12.36,15.72l-25.23,9.18c-3.76,1.37-6.77,4.12-8.46,7.76-1.69,3.63-1.87,7.7-.5,11.47l42.41,116.52ZM225.04,15c0-4.42,3.58-8,8-8h84.5c4.42,0,8,3.58,8,8v124c0,4.42-3.58,8-8,8h-84.5c-4.42,0-8-3.58-8-8V15Zm-29.64,8.8l22.64-3.99v119.2c0,8.27,6.73,15,15,15h30.17l-43.49,7.67c-.47.08-.94.12-1.4.12-3.81,0-7.18-2.73-7.87-6.61l-21.53-122.12c-.77-4.35,2.14-8.5,6.49-9.27Zm-36.41,24.59l23.98-8.73,20.58,116.74c1.27,7.18,7.48,12.4,14.76,12.4.87,0,1.75-.08,2.61-.23l33.38-5.89-47.43,17.26c-.9.33-1.83.48-2.74.48-3.27,0-6.34-2.02-7.52-5.27l-42.41-116.52c-1.51-4.15.63-8.74,4.78-10.25Z"/>
  <path class="cls-1" d="m27.64,274.01c-1.43-3.18-2.46-4.21-4.75-4.93,2.19-.72,3.14-1.21,4.26-2.24,1.75-1.66,2.64-4.17,2.64-7.35,0-6.45-4.21-10.21-11.47-10.21H6.68c-3.05,0-4.7-.04-6.68-.13.27,2.15.36,3.81.36,6.59v24.1c0,3.32-.09,4.66-.36,6.72h9.63c-.27-2.06-.36-3.72-.36-6.76v-7.35h4.57c1.43,0,2.55.36,3.49,1.21,1.12.99,1.66,2.02,3.09,5.91,1.39,3.72,1.93,5.55,2.2,6.99h10.48c-1.12-2.37-1.66-3.49-2.15-4.75-2.02-4.84-2.64-6.36-3.32-7.8Zm-11.38-9.23h-6.99v-7.97h7.03c2.78,0,4.21,1.3,4.21,3.81s-1.61,4.17-4.26,4.17Z"/>
  <path class="cls-1" d="m64.61,259.23h-9.27c.27,2.33.36,4.21.36,6.72v9.18c-1.75,2.87-4.26,4.61-6.72,4.61-1.3,0-2.28-.45-2.91-1.25-.54-.72-.72-1.52-.72-3.36v-9.18c0-2.69.09-4.57.36-6.72h-9.32c.22,1.88.36,4.12.36,6.72v11.24c0,3.54.76,5.73,2.55,7.53,1.7,1.66,4.12,2.51,7.12,2.51,3.81,0,6.36-1.08,9.32-3.85-.04.31-.04.99-.04,1.21v1.93h8.92c-.27-1.79-.36-3.63-.36-6.72v-13.84c0-2.73.09-4.62.36-6.72Z"/>
  <path class="cls-1" d="m87.28,258.42c-3.72,0-6.59,1.03-9.23,3.36.04-.63.04-1.03.04-1.7v-3.76c0-3.27.09-4.88.31-7.03h-9.09c.27,2.15.36,3.76.36,7.03v23.21c0,3-.09,4.88-.36,7.03h8.78v-1.43c0-.22-.04-.81-.04-.94,2.91,2.42,5.11,3.18,8.83,3.18,3.94,0,6.99-1.17,9.32-3.49,2.6-2.73,3.99-6.59,3.99-11.38,0-8.87-4.75-14.07-12.9-14.07Zm-2.28,22.09c-3.85,0-6.81-3.36-6.81-7.79s2.91-7.48,6.99-7.48,6.32,2.78,6.32,7.35-2.6,7.93-6.5,7.93Z"/>
  <path class="cls-1" d="m121.28,265.19l-3.99,10.17-4.12-10.35c-.94-2.42-1.52-4.35-1.75-5.78h-9.72c.58,1.12.76,1.52,2.69,6l8.38,18.91-.94,1.93c-.67,1.34-1.93,2.11-3.63,2.11-1.17,0-2.02-.22-3.49-.99l-.99,7.12c2.46.54,4.17.76,6.14.76,5.11,0,8.33-1.93,10.12-6.14l10.26-23.7q1.57-3.67,2.69-6h-9.72c-.27,1.57-.67,2.87-1.93,5.96Z"/>
  <path class="cls-1" d="m167.68,251.34h-21.28c-4.39,0-5.73-.04-7.66-.36v8.11c2.37-.22,3.18-.27,7.53-.27h18.59c-1.39,5.38-3.67,9.45-7.44,13.26-3.94,3.94-8.65,6.68-15.1,8.78,2.96,2.91,3.9,4.12,5.65,7.53,7.88-3.63,12.9-7.21,17.07-12.19,4.3-5.11,6.99-10.71,9-19.04.36-1.52.45-1.75.94-2.51l-4.03-3.9c-.99.45-1.79.58-3.27.58Z"/>
  <path class="cls-1" d="m213.07,260.53h-22.49c-3.76,0-5.2-.09-7.21-.36v7.53c2.82-.22,3.58-.27,7.12-.27h19.4c-1.66,3.99-3.63,6.54-6.9,8.96-3.23,2.42-6.45,3.85-11.83,5.24,2.6,2.87,3.85,4.7,5.02,7.35,6.14-2.38,9.36-4.12,12.77-6.99,4.39-3.67,7.62-8.69,9.95-15.37.63-1.84.72-2.02,1.25-2.82l-3.49-3.76c-1.12.45-1.43.49-3.58.49Z"/>
  <path class="cls-1" d="m193.67,249.33c-3.18,0-4.84-.09-6.59-.36v7.53c1.97-.18,2.96-.22,6.5-.22h14.52c3.09,0,5.2.09,6.9.22v-7.53c-1.57.27-3.49.36-7.03.36h-14.29Z"/>
  <path class="cls-1" d="m241.22,269.44l6.85-2.11c-1.17-4.3-1.97-6.32-4.35-10.93l-6.54,1.79c1.97,4.17,3.18,7.53,4.03,11.25Z"/>
  <path class="cls-1" d="m250.59,266.75c-2.78,7.44-7.66,11.92-16.67,15.41,2.51,2.46,3.4,3.58,4.93,6.32,2.64-1.34,3.85-2.02,5.42-3,3.81-2.46,6.99-5.51,9.41-9.09,2.51-3.72,4.26-8.29,5.6-14.6.36-1.75.4-1.93.67-2.73l-7.39-1.75c-.04,2.64-.81,6.32-1.97,9.45Z"/>
  <path class="cls-1" d="m233.88,258.29l-6.63,1.84c1.93,4.21,2.82,6.9,3.99,11.6l6.99-2.11c-1.21-4.35-2.6-8.02-4.35-11.33Z"/>
  <path class="cls-1" d="m284.57,261.47l3.99-6.85c-3.76-2.19-7.57-3.94-12.86-5.87l-3.99,6.32c4.52,1.57,8.24,3.4,12.86,6.41Z"/>
  <path class="cls-1" d="m300.83,256.85c-1.48,4.26-2.78,6.85-4.93,9.86-3.27,4.48-7.26,7.57-12.54,9.63-4.35,1.7-9.9,2.87-13.84,2.96l2.24,8.47c.99-.27,1.88-.49,3.18-.72,3.58-.67,5.51-1.12,8.15-1.97,7.21-2.29,12.77-5.78,17.29-10.98,2.87-3.23,4.7-6.32,6.99-11.69-2.55-1.57-3.85-2.73-6.54-5.56Z"/>
  <path class="cls-1" d="m284.83,266.04c-4.03-2.64-7.35-4.3-12.5-6.32l-4.12,6.41c5.02,1.93,8.96,4.08,12.81,6.94l3.81-7.03Z"/>
  <path class="cls-1" d="m337.58,280.01c.63-4.03,1.34-8.87,1.75-11.87q.58-4.39,1.17-5.51l-3.41-2.82c-.85.4-1.39.49-2.55.49h-10.84c-3.23,0-4.12-.04-6-.27v6.81c1.48-.13,2.82-.18,5.82-.18h8.6c-.63,5.87-.85,7.35-1.93,13.35h-11.07c-3.27,0-4.3-.04-6-.27v6.81c1.61-.13,3.09-.18,6-.18h20.97c2.29,0,4.44.04,5.91.18v-6.81c-1.57.18-3.36.27-5.87.27h-2.55Z"/>
  <path class="cls-1" d="m385.56,255.96h-9.77q.09-1.08.13-2.29c.27-4.26.27-4.39.49-5.42l-8.42-.22c.13.94.13,1.3.13,2.24,0,1.39-.09,3.99-.22,5.73h-6.18c-3.18,0-3.99-.04-6.23-.36l.04,7.66c2.11-.22,3.05-.27,6.05-.27h5.6c-.63,3.76-1.12,5.38-2.24,7.66-2.24,4.53-5.69,7.71-11.65,10.84,2.46,2.11,3.81,3.63,5.82,6.81,9.09-6,13.35-11.83,15.32-20.88q.31-1.52.67-4.48h8.56c0,3.85-.4,9.5-.85,12.5-.58,3.9-1.12,4.61-3.27,4.61-1.39,0-3.58-.31-5.82-.9,1.03,2.82,1.34,4.3,1.52,7.88,3.45.31,4.12.36,5.87.36,4.97,0,7.12-1.43,8.42-5.6.9-2.96,1.57-10.44,1.88-20.03.04-2.06.13-2.42.63-3.32l-3.49-3.05c-.99.4-1.52.49-3,.49Z"/>
  <path class="cls-1" d="m407.65,264.15c-4.66,0-7.08-.09-9.18-.4v8.65c2.73-.22,4.21-.27,9.23-.27h21.32c5.11,0,7.08.04,9.23.27v-8.65c-3,.31-4.7.4-9.18.4h-21.41Z"/>
  <path class="cls-1" d="m473.26,257.3c-1.25-2.38-2.69-4.44-4.44-6.41l-4.26,1.93c1.79,2.06,2.96,3.72,4.43,6.54l4.26-2.06Z"/>
  <path class="cls-1" d="m479.26,254.43c-1.57-2.73-2.82-4.44-4.48-6.23l-4.03,1.84c1.57,1.79,2.82,3.58,4.39,6.41l4.12-2.02Z"/>
  <path class="cls-1" d="m456.95,254.93c.04-4.66.04-5.38.22-6.54h-8.65c.27,2.42.27,2.64.31,6.5v26.07c-.04,3.67-.09,4.97-.27,6.85h8.65c-.18-1.16-.27-3.54-.27-6.85v-11.65c.18.13.27.18.4.22.13.09.27.13,1.61.67,5.2,2.29,10.39,5.15,14.11,7.79l4.26-7.62c-6.27-3.85-13.31-7.03-20.38-9.32v-6.14Z"/>
</svg>