<?xml version="1.0" encoding="UTF-8"?>
<svg id="_レイヤー_1" data-name="レイヤー 1" xmlns="http://www.w3.org/2000/svg" viewBox="0 0 982.48 187.43">
  <defs>
    <style>
      .cls-1 {
        fill: #fff;
        stroke-width: 0px;
      }
    </style>
  </defs>
  <path class="cls-1" d="m43.32,177.56c2.15,5.9,7.81,9.87,14.1,9.87,1.75,0,3.48-.31,5.13-.91l79.4-28.9c1.1-.4,2.11-.93,3.05-1.54l11.8-2.08h14.02c8.27,0,15-6.73,15-15V15c0-8.27-6.73-15-15-15h-84.5c-7.47,0-13.67,5.5-14.8,12.66l-24.06,4.24c-7.59,1.34-12.84,8.2-12.36,15.72l-25.23,9.18c-3.76,1.37-6.77,4.12-8.46,7.76-1.69,3.63-1.87,7.7-.5,11.47l42.41,116.52ZM78.32,15c0-4.42,3.58-8,8-8h84.5c4.42,0,8,3.58,8,8v124c0,4.42-3.58,8-8,8h-84.5c-4.42,0-8-3.58-8-8V15Zm-29.64,8.8l22.64-3.99v119.2c0,8.27,6.73,15,15,15h30.17l-43.49,7.67c-.47.08-.94.12-1.4.12-3.81,0-7.18-2.73-7.87-6.61l-21.53-122.12c-.77-4.35,2.14-8.5,6.49-9.27ZM12.27,48.39l23.98-8.73,20.58,116.74c1.27,7.18,7.48,12.4,14.76,12.4.87,0,1.75-.08,2.61-.23l33.38-5.89-47.43,17.26c-.9.33-1.83.48-2.74.48-3.27,0-6.34-2.02-7.52-5.27L7.49,58.64c-1.51-4.15.63-8.74,4.78-10.25Z"/>
  <g>
    <path class="cls-1" d="m287.8,97.5c-2.21-4.89-3.79-6.48-7.3-7.58,3.38-1.1,4.82-1.86,6.55-3.45,2.69-2.55,4.07-6.41,4.07-11.3,0-9.92-6.48-15.71-17.64-15.71h-17.92c-4.69,0-7.24-.07-10.27-.21.41,3.31.55,5.86.55,10.13v37.07c0,5.1-.14,7.17-.55,10.34h14.82c-.41-3.17-.55-5.72-.55-10.41v-11.3h7.03c2.21,0,3.93.55,5.38,1.86,1.72,1.52,2.55,3.1,4.75,9.1,2.14,5.72,2.96,8.54,3.38,10.75h16.13c-1.72-3.65-2.55-5.37-3.31-7.3-3.1-7.44-4.07-9.79-5.1-11.99Zm-17.5-14.2h-10.75v-12.27h10.82c4.27,0,6.48,2,6.48,5.86s-2.48,6.41-6.55,6.41Z"/>
    <path class="cls-1" d="m344.66,74.76h-14.27c.41,3.58.55,6.48.55,10.34v14.13c-2.69,4.41-6.55,7.1-10.34,7.1-2,0-3.51-.69-4.48-1.93-.83-1.1-1.1-2.34-1.1-5.17v-14.13c0-4.14.14-7.03.55-10.34h-14.33c.34,2.89.55,6.34.55,10.34v17.3c0,5.44,1.17,8.82,3.93,11.58,2.62,2.55,6.34,3.86,10.96,3.86,5.86,0,9.79-1.65,14.33-5.93-.07.48-.07,1.52-.07,1.86v2.96h13.71c-.41-2.76-.55-5.58-.55-10.34v-21.29c0-4.2.14-7.1.55-10.34Z"/>
    <path class="cls-1" d="m379.53,73.52c-5.72,0-10.13,1.59-14.2,5.17.07-.96.07-1.58.07-2.62v-5.79c0-5.03.14-7.51.48-10.82h-13.99c.41,3.31.55,5.79.55,10.82v35.7c0,4.62-.14,7.51-.55,10.82h13.51v-2.21c0-.34-.07-1.24-.07-1.45,4.48,3.72,7.86,4.89,13.58,4.89,6.06,0,10.75-1.79,14.33-5.37,4-4.2,6.13-10.13,6.13-17.5,0-13.65-7.3-21.64-19.85-21.64Zm-3.51,33.97c-5.93,0-10.47-5.17-10.47-11.99s4.48-11.51,10.75-11.51,9.72,4.27,9.72,11.3-4,12.2-9.99,12.2Z"/>
    <path class="cls-1" d="m431.84,83.93l-6.13,15.64-6.34-15.92c-1.45-3.72-2.34-6.68-2.69-8.89h-14.95c.9,1.72,1.17,2.34,4.13,9.24l12.89,29.08-1.45,2.96c-1.03,2.07-2.96,3.24-5.58,3.24-1.79,0-3.1-.35-5.37-1.52l-1.52,10.96c3.79.83,6.41,1.17,9.44,1.17,7.86,0,12.82-2.96,15.57-9.44l15.78-36.45q2.41-5.65,4.13-9.24h-14.95c-.41,2.41-1.03,4.41-2.96,9.17Z"/>
    <path class="cls-1" d="m503.21,62.63h-32.73c-6.75,0-8.82-.07-11.78-.55v12.47c3.65-.34,4.89-.41,11.58-.41h28.6c-2.14,8.27-5.65,14.54-11.44,20.4-6.06,6.07-13.3,10.27-23.22,13.51,4.55,4.48,6,6.34,8.68,11.58,12.13-5.58,19.85-11.09,26.25-18.74,6.62-7.86,10.75-16.47,13.85-29.29.55-2.34.69-2.69,1.45-3.86l-6.2-6c-1.52.69-2.76.9-5.03.9Z"/>
    <path class="cls-1" d="m573.02,76.76h-34.59c-5.79,0-7.99-.14-11.09-.55v11.58c4.34-.34,5.51-.41,10.96-.41h29.84c-2.55,6.13-5.58,10.06-10.61,13.78-4.96,3.72-9.92,5.93-18.19,8.06,4,4.41,5.93,7.24,7.72,11.3,9.44-3.65,14.4-6.34,19.64-10.75,6.75-5.65,11.72-13.37,15.3-23.64.97-2.83,1.1-3.1,1.93-4.34l-5.37-5.79c-1.72.69-2.21.76-5.51.76Z"/>
    <path class="cls-1" d="m543.18,59.53c-4.89,0-7.44-.14-10.13-.55v11.58c3.03-.28,4.55-.35,9.99-.35h22.33c4.76,0,7.99.14,10.61.35v-11.58c-2.41.41-5.38.55-10.82.55h-21.98Z"/>
    <path class="cls-1" d="m616.33,90.47l10.54-3.24c-1.79-6.62-3.03-9.72-6.68-16.82l-10.06,2.76c3.03,6.41,4.89,11.58,6.2,17.3Z"/>
    <path class="cls-1" d="m630.73,86.34c-4.27,11.44-11.78,18.33-25.63,23.7,3.86,3.79,5.24,5.51,7.58,9.72,4.07-2.07,5.93-3.1,8.34-4.62,5.86-3.79,10.75-8.48,14.47-13.99,3.86-5.72,6.55-12.75,8.61-22.46.55-2.69.62-2.96,1.03-4.2l-11.37-2.69c-.07,4.06-1.24,9.72-3.03,14.54Z"/>
    <path class="cls-1" d="m605.03,73.32l-10.2,2.83c2.96,6.48,4.34,10.61,6.13,17.85l10.75-3.24c-1.86-6.68-4-12.34-6.68-17.44Z"/>
    <path class="cls-1" d="m683,78.21l6.13-10.54c-5.79-3.38-11.65-6.06-19.78-9.03l-6.13,9.72c6.96,2.41,12.68,5.24,19.78,9.85Z"/>
    <path class="cls-1" d="m708.02,71.11c-2.27,6.55-4.27,10.54-7.58,15.16-5.03,6.89-11.16,11.64-19.3,14.81-6.68,2.62-15.23,4.41-21.29,4.55l3.45,13.03c1.52-.41,2.89-.76,4.89-1.1,5.51-1.03,8.48-1.72,12.54-3.03,11.09-3.52,19.64-8.89,26.6-16.88,4.41-4.96,7.24-9.72,10.75-17.99-3.93-2.41-5.93-4.2-10.06-8.55Z"/>
    <path class="cls-1" d="m683.41,85.24c-6.2-4.07-11.3-6.62-19.23-9.72l-6.34,9.85c7.72,2.96,13.78,6.27,19.71,10.68l5.86-10.82Z"/>
    <path class="cls-1" d="m764.56,106.74c.97-6.2,2.07-13.64,2.69-18.26q.9-6.75,1.79-8.48l-5.24-4.34c-1.31.62-2.14.76-3.93.76h-16.68c-4.96,0-6.34-.07-9.24-.41v10.47c2.27-.21,4.34-.27,8.96-.27h13.23c-.96,9.03-1.31,11.3-2.96,20.53h-17.02c-5.03,0-6.62-.07-9.23-.41v10.47c2.48-.21,4.75-.28,9.23-.28h32.25c3.52,0,6.82.07,9.1.28v-10.47c-2.41.27-5.17.41-9.03.41h-3.93Z"/>
    <path class="cls-1" d="m838.35,69.73h-15.02q.14-1.66.21-3.52c.41-6.55.41-6.75.76-8.34l-12.96-.34c.21,1.45.21,2,.21,3.45,0,2.14-.14,6.13-.34,8.82h-9.51c-4.89,0-6.13-.07-9.58-.55l.07,11.78c3.24-.34,4.69-.41,9.3-.41h8.61c-.96,5.79-1.72,8.27-3.44,11.78-3.45,6.96-8.75,11.85-17.92,16.68,3.79,3.24,5.86,5.58,8.96,10.47,13.99-9.23,20.53-18.19,23.57-32.11q.48-2.34,1.03-6.89h13.16c0,5.93-.62,14.61-1.31,19.23-.9,6-1.72,7.1-5.03,7.1-2.14,0-5.51-.48-8.96-1.38,1.58,4.34,2.07,6.62,2.34,12.13,5.31.48,6.34.55,9.03.55,7.65,0,10.96-2.21,12.96-8.61,1.38-4.55,2.41-16.06,2.89-30.8.07-3.17.21-3.72.96-5.1l-5.37-4.69c-1.52.62-2.34.76-4.62.76Z"/>
    <path class="cls-1" d="m872.33,82.34c-7.17,0-10.89-.14-14.13-.62v13.3c4.2-.35,6.48-.41,14.2-.41h32.8c7.86,0,10.89.07,14.2.41v-13.3c-4.62.48-7.23.62-14.13.62h-32.94Z"/>
    <path class="cls-1" d="m973.25,71.8c-1.93-3.65-4.14-6.82-6.82-9.85l-6.55,2.96c2.76,3.17,4.55,5.72,6.82,10.06l6.55-3.17Z"/>
    <path class="cls-1" d="m982.48,67.39c-2.41-4.2-4.34-6.82-6.89-9.58l-6.2,2.83c2.41,2.76,4.34,5.51,6.75,9.85l6.34-3.1Z"/>
    <path class="cls-1" d="m948.16,68.15c.07-7.17.07-8.27.35-10.06h-13.3c.41,3.72.41,4.07.48,9.99v40.11c-.07,5.65-.14,7.65-.41,10.54h13.3c-.28-1.79-.41-5.44-.41-10.54v-17.92c.28.21.41.28.62.35.21.14.41.21,2.48,1.03,7.99,3.52,15.99,7.93,21.71,11.99l6.55-11.72c-9.65-5.93-20.47-10.82-31.36-14.33v-9.44Z"/>
  </g>
</svg>